<svg width="31" height="31" viewBox="0 0 31 31" fill="none" xmlns="http://www.w3.org/2000/svg">
<circle cx="15.5" cy="15.5" r="15.5" fill="#6156E0"/>
<path d="M15.74 21.105C14.97 21.105 14.28 20.98 13.67 20.73C13.06 20.48 12.57 20.11 12.2 19.62C11.84 19.13 11.65 18.54 11.63 17.85H14.36C14.4 18.24 14.535 18.54 14.765 18.75C14.995 18.95 15.295 19.05 15.665 19.05C16.045 19.05 16.345 18.965 16.565 18.795C16.785 18.615 16.895 18.37 16.895 18.06C16.895 17.8 16.805 17.585 16.625 17.415C16.455 17.245 16.24 17.105 15.98 16.995C15.73 16.885 15.37 16.76 14.9 16.62C14.22 16.41 13.665 16.2 13.235 15.99C12.805 15.78 12.435 15.47 12.125 15.06C11.815 14.65 11.66 14.115 11.66 13.455C11.66 12.475 12.015 11.71 12.725 11.16C13.435 10.6 14.36 10.32 15.5 10.32C16.66 10.32 17.595 10.6 18.305 11.16C19.015 11.71 19.395 12.48 19.445 13.47H16.67C16.65 13.13 16.525 12.865 16.295 12.675C16.065 12.475 15.77 12.375 15.41 12.375C15.1 12.375 14.85 12.46 14.66 12.63C14.47 12.79 14.375 13.025 14.375 13.335C14.375 13.675 14.535 13.94 14.855 14.13C15.175 14.32 15.675 14.525 16.355 14.745C17.035 14.975 17.585 15.195 18.005 15.405C18.435 15.615 18.805 15.92 19.115 16.32C19.425 16.72 19.58 17.235 19.58 17.865C19.58 18.465 19.425 19.01 19.115 19.5C18.815 19.99 18.375 20.38 17.795 20.67C17.215 20.96 16.53 21.105 15.74 21.105Z" fill="#F8F8F8"/>
</svg>
