<svg width="20" height="20" viewBox="0 0 20 20" fill="none" xmlns="http://www.w3.org/2000/svg">
<circle cx="10" cy="10" r="10" fill="#FC3434"/>
<path d="M7.6665 12.6667V6.88889L12.9998 6V11.7778" stroke="#F8F8F8" stroke-width="0.888889" stroke-linecap="round" stroke-linejoin="round"/>
<path d="M6.33333 14C7.06971 14 7.66667 13.4031 7.66667 12.6667C7.66667 11.9303 7.06971 11.3333 6.33333 11.3333C5.59695 11.3333 5 11.9303 5 12.6667C5 13.4031 5.59695 14 6.33333 14Z" stroke="#F8F8F8" stroke-width="0.888889" stroke-linecap="round" stroke-linejoin="round"/>
<path d="M11.6668 13.1111C12.4032 13.1111 13.0002 12.5142 13.0002 11.7778C13.0002 11.0414 12.4032 10.4444 11.6668 10.4444C10.9304 10.4444 10.3335 11.0414 10.3335 11.7778C10.3335 12.5142 10.9304 13.1111 11.6668 13.1111Z" stroke="#F8F8F8" stroke-width="0.888889" stroke-linecap="round" stroke-linejoin="round"/>
</svg>
